<svg width="21" height="21" viewBox="0 0 21 21" fill="none" xmlns="http://www.w3.org/2000/svg">
<path fill-rule="evenodd" clip-rule="evenodd" d="M1.41 0L0 1.41L4.22 5.63L1 8.14L10 15.14L12.1 13.51L13.52 14.93L9.99 17.68L2.62 11.95L1 13.21L10 20.21L14.95 16.36L18.73 20.14L20.14 18.73L1.41 0ZM15.74 8.14L10 3.67L8.83 4.58L7.41 3.16L10 1.14L19 8.14L15.28 11.03L13.85 9.61L15.74 8.14ZM17.37 11.94L19 13.21L18.13 13.89L16.7 12.46L17.37 11.94ZM4.26 8.14L10 12.61L10.67 12.08L5.65 7.06L4.26 8.14Z" fill="#EDEDED"/>
</svg>
