<svg width="21" height="19" viewBox="0 0 21 19" fill="none" xmlns="http://www.w3.org/2000/svg">
<path fill-rule="evenodd" clip-rule="evenodd" d="M20.4697 13.2L15.6565 1.23C15.3557 0.48 14.6473 0.02 13.9001 0C13.6478 0 13.3858 0.04 13.1335 0.15L5.98171 3.2C5.25391 3.51 4.80753 4.23 4.78812 5C4.77842 5.27 4.82694 5.54 4.93368 5.8L9.74684 17.77C10.0477 18.53 10.7658 18.99 11.5227 19C11.775 19 12.0273 18.95 12.2699 18.85L19.412 15.8C20.4018 15.38 20.8773 14.21 20.4697 13.2ZM1.54701 16.9L2.84733 17.46V8.43L0.489275 14.29C0.0914133 15.31 0.566907 16.48 1.54701 16.9ZM6.72891 5.04L11.5421 17L18.6745 13.95L13.871 2H13.8613L6.72891 5.04ZM9.76625 5.25C9.23032 5.25 8.79585 5.69772 8.79585 6.25C8.79585 6.80228 9.23032 7.25 9.76625 7.25C10.3022 7.25 10.7366 6.80228 10.7366 6.25C10.7366 5.69772 10.3022 5.25 9.76625 5.25ZM6.73862 19C5.67118 19 4.79783 18.1 4.79783 17V10.66L8.14569 19H6.73862Z" fill="#DFE1E4"/>
</svg>
